# xmcd CD database file
#
# Track frame offsets:
#	150
#	18503
#	41316
#	59646
#	75342
#	94886
#	113572
#	131055
#	145055
#	161118
#	177462
#	198084
#	217509
#	238703
#
# Disc length: 3395 seconds
#
# Revision: 0
# Processed by: cddbd v1.5.2PL0 Copyright (c) Steve Scherf et al.
# Submitted via: CDex 1.70beta2
#
DISCID=b50d410e
DTITLE=Air - Pocket Symphony
DYEAR=2007
DGENRE=A valider
TTITLE0=Space Maker
TTITLE1=Once Upon a Time
TTITLE2=One Hell of a Party (Featuring Jarvis Cocker)
TTITLE3=Napalm Love
TTITLE4=Mayfair Song
TTITLE5=Left Bank
TTITLE6=Photograph
TTITLE7=Mer Du Japon
TTITLE8=Lost Message
TTITLE9=Somewhere Between Walking and Sleeping (Featuring N. Hannon)
TTITLE10=Redhead Girl
TTITLE11=Night Sight
TTITLE12=The Duelist (Featuring Jarvis Cocker and Charlotte Gainsbourg)
TTITLE13=Crickets
EXTD=YEAR: 2007
EXTT0=
EXTT1=
EXTT2=
EXTT3=
EXTT4=
EXTT5=
EXTT6=
EXTT7=
EXTT8=
EXTT9=
EXTT10=
EXTT11=
EXTT12=
EXTT13=
PLAYORDER=
